<?xml version="1.0" encoding="UTF-8" standalone="no"?>
<!DOCTYPE svg PUBLIC "-//W3C//DTD SVG 1.1//EN" "http://www.w3.org/Graphics/SVG/1.1/DTD/svg11.dtd">
<!-- Created with Vectornator (http://vectornator.io/) -->
<svg height="100%" stroke-miterlimit="10" style="fill-rule:nonzero;clip-rule:evenodd;stroke-linecap:round;stroke-linejoin:round;" version="1.1" viewBox="0 0 880.966 292.359" width="100%" xml:space="preserve" xmlns="http://www.w3.org/2000/svg" xmlns:xlink="http://www.w3.org/1999/xlink">
<defs/>
<path d="M0 0L880.966 0L880.966 292.359L0 292.359L0 0Z" fill="#ffffff" fill-rule="nonzero" opacity="1" stroke="none"/>
<clipPath id="ArtboardFrame">
<rect height="292.359" width="880.966" x="0" y="0"/>
</clipPath>
<g clip-path="url(#ArtboardFrame)" id="Layer-1">
<path d="M253.931 0L400.11 0C480.843 0 546.29 65.4469 546.29 146.18L546.29 146.18C546.29 226.913 480.843 292.359 400.11 292.359L253.931 292.359L253.931 0Z" fill="none" opacity="1" stroke="#000000" stroke-linecap="butt" stroke-linejoin="round" stroke-width="10"/>
<path d="M95.1781 52.7624L253.937 52.7624" fill="none" opacity="1" stroke="#000000" stroke-linecap="butt" stroke-linejoin="round" stroke-width="10"/>
<path d="M95.1781 246.479L253.937 246.479" fill="none" opacity="1" stroke="#000000" stroke-linecap="butt" stroke-linejoin="round" stroke-width="10"/>
<path d="M546.29 146.18L705.049 146.18" fill="none" opacity="1" stroke="#000000" stroke-linecap="butt" stroke-linejoin="round" stroke-width="10"/>
<path d="M33.4922 56.037L25.6523 33.2206L17.3203 56.037L33.4922 56.037ZM21.9961 25.5566L29.9062 25.5566L48.6445 77.2011L40.9805 77.2011L35.7422 61.7323L15.3164 61.7323L9.72656 77.2011L2.55469 77.2011L21.9961 25.5566Z" fill="#000000" opacity="1" stroke="none"/>
<path d="M26.3906 241.106C29.3438 241.106 31.6406 240.695 33.2812 239.875C35.8594 238.586 37.1484 236.266 37.1484 232.914C37.1484 229.539 35.7773 227.266 33.0352 226.094C31.4883 225.438 29.1914 225.109 26.1445 225.109L13.6641 225.109L13.6641 241.106L26.3906 241.106ZM28.7461 264.942C33.0352 264.942 36.0937 263.699 37.9219 261.215C39.0703 259.645 39.6445 257.746 39.6445 255.52C39.6445 251.77 37.9688 249.215 34.6172 247.856C32.8359 247.129 30.4805 246.766 27.5508 246.766L13.6641 246.766L13.6641 264.942L28.7461 264.942ZM6.80859 219.274L28.9922 219.274C35.0391 219.274 39.3398 221.078 41.8945 224.688C43.3945 226.82 44.1445 229.281 44.1445 232.07C44.1445 235.328 43.2188 238 41.3672 240.086C40.4062 241.188 39.0234 242.195 37.2188 243.109C39.8672 244.117 41.8477 245.254 43.1602 246.52C45.4805 248.77 46.6406 251.875 46.6406 255.836C46.6406 259.164 45.5977 262.176 43.5117 264.871C40.3945 268.902 35.4375 270.918 28.6406 270.918L6.80859 270.918L6.80859 219.274Z" fill="#000000" opacity="1" stroke="none"/>
<g fill="#000000" opacity="1" stroke="none">
<path d="M751.206 117.568C760.323 117.568 767.073 120.497 771.456 126.357C774.877 130.927 776.588 136.775 776.588 143.9C776.588 151.611 774.631 158.021 770.717 163.13C766.124 169.13 759.573 172.13 751.065 172.13C743.12 172.13 736.874 169.505 732.327 164.255C728.272 159.193 726.245 152.794 726.245 145.06C726.245 138.075 727.979 132.099 731.448 127.13C735.901 120.755 742.487 117.568 751.206 117.568ZM751.909 165.872C758.073 165.872 762.532 163.663 765.286 159.245C768.04 154.827 769.417 149.747 769.417 144.005C769.417 137.935 767.829 133.048 764.653 129.345C761.477 125.642 757.135 123.79 751.627 123.79C746.284 123.79 741.924 125.624 738.549 129.292C735.174 132.96 733.487 138.368 733.487 145.517C733.487 151.236 734.934 156.058 737.829 159.984C740.723 163.909 745.417 165.872 751.909 165.872Z"/>
<path d="M792.514 118.974L792.514 150.896C792.514 154.646 793.217 157.763 794.624 160.247C796.71 163.997 800.225 165.872 805.17 165.872C811.1 165.872 815.131 163.845 817.264 159.79C818.413 157.587 818.987 154.622 818.987 150.896L818.987 118.974L826.088 118.974L826.088 147.978C826.088 154.329 825.233 159.216 823.522 162.638C820.381 168.872 814.452 171.989 805.733 171.989C797.014 171.989 791.096 168.872 787.979 162.638C786.268 159.216 785.413 154.329 785.413 147.978L785.413 118.974L792.514 118.974Z"/>
<path d="M874.499 118.974L874.499 125.126L857.096 125.126L857.096 170.618L849.995 170.618L849.995 125.126L832.592 125.126L832.592 118.974L874.499 118.974Z"/>
</g>
<path d="M546.29 146.18C546.29 132.586 557.31 121.566 570.904 121.566C584.498 121.566 595.518 132.586 595.518 146.18C595.518 159.774 584.498 170.794 570.904 170.794C557.31 170.794 546.29 159.774 546.29 146.18Z" fill="#ffffff" fill-rule="nonzero" opacity="1" stroke="#000000" stroke-linecap="butt" stroke-linejoin="round" stroke-width="10"/>
</g>
</svg>
