<?xml version="1.0" encoding="UTF-8" standalone="no"?>
<!DOCTYPE svg PUBLIC "-//W3C//DTD SVG 1.1//EN" "http://www.w3.org/Graphics/SVG/1.1/DTD/svg11.dtd">
<!-- Created with Vectornator (http://vectornator.io/) -->
<svg height="100%" stroke-miterlimit="10" style="fill-rule:nonzero;clip-rule:evenodd;stroke-linecap:round;stroke-linejoin:round;" version="1.1" viewBox="0 0 880.966 292.359" width="100%" xml:space="preserve" xmlns="http://www.w3.org/2000/svg" xmlns:xlink="http://www.w3.org/1999/xlink">
<defs/>
<path d="M0 0L880.966 0L880.966 292.359L0 292.359L0 0Z" fill="#ffffff" fill-rule="nonzero" opacity="1" stroke="none"/>
<clipPath id="ArtboardFrame">
<rect height="292.359" width="880.966" x="0" y="0"/>
</clipPath>
<g clip-path="url(#ArtboardFrame)" id="Layer-1">
<path d="M253.931 0L400.11 0C480.843 0 546.29 65.4469 546.29 146.18L546.29 146.18C546.29 226.913 480.843 292.359 400.11 292.359L253.931 292.359C253.931 292.359 351.162 274.041 351.162 146.18C351.162 18.3185 253.931 0 253.931 0Z" fill="none" opacity="1" stroke="#000000" stroke-linecap="butt" stroke-linejoin="round" stroke-width="10"/>
<path d="M165.097 52.7624L323.856 52.7624" fill="none" opacity="1" stroke="#000000" stroke-linecap="butt" stroke-linejoin="round" stroke-width="10"/>
<path d="M165.097 246.479L323.856 246.479" fill="none" opacity="1" stroke="#000000" stroke-linecap="butt" stroke-linejoin="round" stroke-width="10"/>
<path d="M546.29 146.18L705.049 146.18" fill="none" opacity="1" stroke="#000000" stroke-linecap="butt" stroke-linejoin="round" stroke-width="10"/>
<path d="M111.91 52.5958L104.071 29.7794L95.7386 52.5958L111.91 52.5958ZM100.414 22.1153L108.325 22.1153L127.063 73.7599L119.399 73.7599L114.16 58.2911L93.7347 58.2911L88.1448 73.7599L80.9729 73.7599L100.414 22.1153Z" fill="#000000" opacity="1" stroke="none"/>
<path d="M104.809 237.664C107.762 237.664 110.059 237.254 111.7 236.434C114.278 235.145 115.567 232.825 115.567 229.473C115.567 226.098 114.196 223.825 111.453 222.653C109.907 221.996 107.61 221.668 104.563 221.668L92.0823 221.668L92.0823 237.664L104.809 237.664ZM107.164 261.5C111.453 261.5 114.512 260.258 116.34 257.774C117.489 256.203 118.063 254.305 118.063 252.078C118.063 248.328 116.387 245.774 113.035 244.414C111.254 243.688 108.899 243.325 105.969 243.325L92.0823 243.325L92.0823 261.5L107.164 261.5ZM85.2269 215.832L107.41 215.832C113.457 215.832 117.758 217.637 120.313 221.246C121.813 223.379 122.563 225.84 122.563 228.629C122.563 231.887 121.637 234.559 119.785 236.645C118.825 237.746 117.442 238.754 115.637 239.668C118.285 240.676 120.266 241.813 121.578 243.078C123.899 245.328 125.059 248.434 125.059 252.395C125.059 255.723 124.016 258.735 121.93 261.43C118.813 265.461 113.856 267.477 107.059 267.477L85.2269 267.477L85.2269 215.832Z" fill="#000000" opacity="1" stroke="none"/>
<g fill="#000000" opacity="1" stroke="none">
<path d="M751.206 117.568C760.323 117.568 767.073 120.497 771.456 126.357C774.877 130.927 776.588 136.775 776.588 143.9C776.588 151.611 774.631 158.021 770.717 163.13C766.124 169.13 759.573 172.13 751.065 172.13C743.12 172.13 736.874 169.505 732.327 164.255C728.272 159.193 726.245 152.794 726.245 145.06C726.245 138.075 727.979 132.099 731.448 127.13C735.901 120.755 742.487 117.568 751.206 117.568ZM751.909 165.872C758.073 165.872 762.532 163.663 765.286 159.245C768.04 154.827 769.417 149.747 769.417 144.005C769.417 137.935 767.829 133.048 764.653 129.345C761.477 125.642 757.135 123.79 751.627 123.79C746.284 123.79 741.924 125.624 738.549 129.292C735.174 132.96 733.487 138.368 733.487 145.517C733.487 151.236 734.934 156.058 737.829 159.984C740.723 163.909 745.417 165.872 751.909 165.872Z"/>
<path d="M792.514 118.974L792.514 150.896C792.514 154.646 793.217 157.763 794.624 160.247C796.71 163.997 800.225 165.872 805.17 165.872C811.1 165.872 815.131 163.845 817.264 159.79C818.413 157.587 818.987 154.622 818.987 150.896L818.987 118.974L826.088 118.974L826.088 147.978C826.088 154.329 825.233 159.216 823.522 162.638C820.381 168.872 814.452 171.989 805.733 171.989C797.014 171.989 791.096 168.872 787.979 162.638C786.268 159.216 785.413 154.329 785.413 147.978L785.413 118.974L792.514 118.974Z"/>
<path d="M874.499 118.974L874.499 125.126L857.096 125.126L857.096 170.618L849.995 170.618L849.995 125.126L832.592 125.126L832.592 118.974L874.499 118.974Z"/>
</g>
<path d="M546.29 146.18C546.29 132.586 557.31 121.566 570.904 121.566C584.498 121.566 595.518 132.586 595.518 146.18C595.518 159.774 584.498 170.794 570.904 170.794C557.31 170.794 546.29 159.774 546.29 146.18Z" fill="#ffffff" fill-rule="nonzero" opacity="1" stroke="#000000" stroke-linecap="butt" stroke-linejoin="round" stroke-width="10"/>
</g>
</svg>
