<?xml version="1.0" encoding="UTF-8" standalone="no"?>
<!DOCTYPE svg PUBLIC "-//W3C//DTD SVG 1.1//EN" "http://www.w3.org/Graphics/SVG/1.1/DTD/svg11.dtd">
<!-- Created with Vectornator (http://vectornator.io/) -->
<svg height="100%" stroke-miterlimit="10" style="fill-rule:nonzero;clip-rule:evenodd;stroke-linecap:round;stroke-linejoin:round;" version="1.1" viewBox="0 0 880.966 292.359" width="100%" xml:space="preserve" xmlns="http://www.w3.org/2000/svg" xmlns:xlink="http://www.w3.org/1999/xlink">
<defs/>
<path d="M0 0L880.966 0L880.966 292.359L0 292.359L0 0Z" fill="#ffffff" fill-rule="nonzero" opacity="1" stroke="none"/>
<g id="Layer-1">
<path d="M147.552 146.18L306.311 146.18" fill="none" opacity="1" stroke="#000000" stroke-linecap="butt" stroke-linejoin="round" stroke-width="10"/>
<path d="M546.29 146.18L705.049 146.18" fill="none" opacity="1" stroke="#000000" stroke-linecap="butt" stroke-linejoin="round" stroke-width="10"/>
<g fill="#000000" opacity="1" stroke="none">
<path d="M39.3767 118.974L46.4431 118.974L46.4431 170.618L39.3767 170.618L39.3767 118.974Z"/>
<path d="M57.7985 118.974L66.0602 118.974L92.1462 160.81L92.1462 118.974L98.7907 118.974L98.7907 170.618L90.9509 170.618L64.4782 128.818L64.4782 170.618L57.7985 170.618L57.7985 118.974Z"/>
</g>
<g fill="#000000" opacity="1" stroke="none">
<path d="M751.206 117.568C760.323 117.568 767.073 120.497 771.456 126.357C774.877 130.927 776.588 136.775 776.588 143.9C776.588 151.611 774.631 158.021 770.717 163.13C766.124 169.13 759.573 172.13 751.065 172.13C743.12 172.13 736.874 169.505 732.327 164.255C728.272 159.193 726.245 152.794 726.245 145.06C726.245 138.075 727.979 132.099 731.448 127.13C735.901 120.755 742.487 117.568 751.206 117.568ZM751.909 165.872C758.073 165.872 762.532 163.663 765.286 159.245C768.04 154.827 769.417 149.747 769.417 144.005C769.417 137.935 767.829 133.048 764.653 129.345C761.477 125.642 757.135 123.79 751.627 123.79C746.284 123.79 741.924 125.624 738.549 129.292C735.174 132.96 733.487 138.368 733.487 145.517C733.487 151.236 734.934 156.058 737.829 159.984C740.723 163.909 745.417 165.872 751.909 165.872Z"/>
<path d="M792.514 118.974L792.514 150.896C792.514 154.646 793.217 157.763 794.624 160.247C796.71 163.997 800.225 165.872 805.17 165.872C811.1 165.872 815.131 163.845 817.264 159.79C818.413 157.587 818.987 154.622 818.987 150.896L818.987 118.974L826.088 118.974L826.088 147.978C826.088 154.329 825.233 159.216 823.522 162.638C820.381 168.872 814.452 171.989 805.733 171.989C797.014 171.989 791.096 168.872 787.979 162.638C786.268 159.216 785.413 154.329 785.413 147.978L785.413 118.974L792.514 118.974Z"/>
<path d="M874.499 118.974L874.499 125.126L857.096 125.126L857.096 170.618L849.995 170.618L849.995 125.126L832.592 125.126L832.592 118.974L874.499 118.974Z"/>
</g>
<path d="M546.29 147.011L426.3 215.733L306.311 284.455L306.791 146.18L307.271 7.90487L426.78 77.4581L546.29 147.011Z" fill="none" opacity="1" stroke="#000000" stroke-linecap="butt" stroke-linejoin="round" stroke-width="12.9938"/>
<path d="M546.29 146.18C546.29 132.586 557.31 121.566 570.904 121.566C584.498 121.566 595.518 132.586 595.518 146.18C595.518 159.774 584.498 170.794 570.904 170.794C557.31 170.794 546.29 159.774 546.29 146.18Z" fill="#ffffff" fill-rule="nonzero" opacity="1" stroke="#000000" stroke-linecap="butt" stroke-linejoin="round" stroke-width="10"/>
</g>
</svg>
