<?xml version="1.0" encoding="UTF-8" standalone="no"?>
<!DOCTYPE svg PUBLIC "-//W3C//DTD SVG 1.1//EN" "http://www.w3.org/Graphics/SVG/1.1/DTD/svg11.dtd">
<!-- Created with Vectornator (http://vectornator.io/) -->
<svg height="100%" stroke-miterlimit="10" style="fill-rule:nonzero;clip-rule:evenodd;stroke-linecap:round;stroke-linejoin:round;" version="1.1" viewBox="0 0 880.966 292.359" width="100%" xml:space="preserve" xmlns="http://www.w3.org/2000/svg" xmlns:xlink="http://www.w3.org/1999/xlink">
<defs/>
<path d="M0 0L880.966 0L880.966 292.359L0 292.359L0 0Z" fill="#ffffff" fill-rule="nonzero" opacity="1" stroke="none"/>
<clipPath id="ArtboardFrame">
<rect height="292.359" width="880.966" x="0" y="0"/>
</clipPath>
<g clip-path="url(#ArtboardFrame)" id="Layer-1">
<path d="M253.931 0L400.11 0C480.843 0 546.29 65.4469 546.29 146.18L546.29 146.18C546.29 226.913 480.843 292.359 400.11 292.359L253.931 292.359C253.931 292.359 351.162 274.041 351.162 146.18C351.162 18.3185 253.931 0 253.931 0Z" fill="none" opacity="1" stroke="#000000" stroke-linecap="butt" stroke-linejoin="round" stroke-width="10"/>
<path d="M119.737 52.7624L278.496 52.7624" fill="none" opacity="1" stroke="#000000" stroke-linecap="butt" stroke-linejoin="round" stroke-width="10"/>
<path d="M119.737 246.479L278.496 246.479" fill="none" opacity="1" stroke="#000000" stroke-linecap="butt" stroke-linejoin="round" stroke-width="10"/>
<path d="M546.29 146.18L705.049 146.18" fill="none" opacity="1" stroke="#000000" stroke-linecap="butt" stroke-linejoin="round" stroke-width="10"/>
<path d="M66.5504 52.5958L58.7106 29.7794L50.3786 52.5958L66.5504 52.5958ZM55.0544 22.1153L62.9645 22.1153L81.7028 73.7599L74.0387 73.7599L68.8004 58.2911L48.3747 58.2911L42.7848 73.7599L35.6129 73.7599L55.0544 22.1153Z" fill="#000000" opacity="1" stroke="none"/>
<path d="M59.4489 237.664C62.402 237.664 64.6989 237.254 66.3395 236.434C68.9176 235.145 70.2067 232.825 70.2067 229.473C70.2067 226.098 68.8356 223.825 66.0934 222.653C64.5465 221.996 62.2497 221.668 59.2028 221.668L46.7223 221.668L46.7223 237.664L59.4489 237.664ZM61.8044 261.5C66.0934 261.5 69.152 260.258 70.9801 257.774C72.1286 256.203 72.7028 254.305 72.7028 252.078C72.7028 248.328 71.027 245.774 67.6754 244.414C65.8942 243.688 63.5387 243.325 60.609 243.325L46.7223 243.325L46.7223 261.5L61.8044 261.5ZM39.8669 215.832L62.0504 215.832C68.0973 215.832 72.3981 217.637 74.9528 221.246C76.4528 223.379 77.2028 225.84 77.2028 228.629C77.2028 231.887 76.277 234.559 74.4254 236.645C73.4645 237.746 72.0817 238.754 70.277 239.668C72.9254 240.676 74.9059 241.813 76.2184 243.078C78.5387 245.328 79.6989 248.434 79.6989 252.395C79.6989 255.723 78.6559 258.735 76.57 261.43C73.4528 265.461 68.4958 267.477 61.6989 267.477L39.8669 267.477L39.8669 215.832Z" fill="#000000" opacity="1" stroke="none"/>
<g fill="#000000" opacity="1" stroke="none">
<path d="M751.206 117.568C760.323 117.568 767.073 120.497 771.456 126.357C774.877 130.927 776.588 136.775 776.588 143.9C776.588 151.611 774.631 158.021 770.717 163.13C766.124 169.13 759.573 172.13 751.065 172.13C743.12 172.13 736.874 169.505 732.327 164.255C728.272 159.193 726.245 152.794 726.245 145.06C726.245 138.075 727.979 132.099 731.448 127.13C735.901 120.755 742.487 117.568 751.206 117.568ZM751.909 165.872C758.073 165.872 762.532 163.663 765.286 159.245C768.04 154.827 769.417 149.747 769.417 144.005C769.417 137.935 767.829 133.048 764.653 129.345C761.477 125.642 757.135 123.79 751.627 123.79C746.284 123.79 741.924 125.624 738.549 129.292C735.174 132.96 733.487 138.368 733.487 145.517C733.487 151.236 734.934 156.058 737.829 159.984C740.723 163.909 745.417 165.872 751.909 165.872Z"/>
<path d="M792.514 118.974L792.514 150.896C792.514 154.646 793.217 157.763 794.624 160.247C796.71 163.997 800.225 165.872 805.17 165.872C811.1 165.872 815.131 163.845 817.264 159.79C818.413 157.587 818.987 154.622 818.987 150.896L818.987 118.974L826.088 118.974L826.088 147.978C826.088 154.329 825.233 159.216 823.522 162.638C820.381 168.872 814.452 171.989 805.733 171.989C797.014 171.989 791.096 168.872 787.979 162.638C786.268 159.216 785.413 154.329 785.413 147.978L785.413 118.974L792.514 118.974Z"/>
<path d="M874.499 118.974L874.499 125.126L857.096 125.126L857.096 170.618L849.995 170.618L849.995 125.126L832.592 125.126L832.592 118.974L874.499 118.974Z"/>
</g>
<path d="M201.393 0C201.393 0 308.229 18.3185 308.229 146.18C308.229 274.041 201.916 292.359 201.916 292.359" fill="none" opacity="1" stroke="#000000" stroke-linecap="butt" stroke-linejoin="round" stroke-width="10"/>
</g>
</svg>
